<?xml version="1.0" standalone="no"?>
<!DOCTYPE svg PUBLIC "-//W3C//DTD SVG 20010904//EN"
 "http://www.w3.org/TR/2001/REC-SVG-20010904/DTD/svg10.dtd">
<svg version="1.0" xmlns="http://www.w3.org/2000/svg"
 width="662.000000pt" height="662.000000pt" viewBox="0 0 662.000000 662.000000"
 preserveAspectRatio="xMidYMid meet">
<metadata>
Created by potrace 1.11, written by Peter Selinger 2001-2013
</metadata>
<g transform="translate(0.000000,662.000000) scale(0.100000,-0.100000)"
fill="#000000" stroke="none">
<path d="M3249 6527 c-61 -56 -215 -197 -244 -222 -49 -43 -191 -172 -226
-205 -21 -19 -70 -64 -110 -100 -40 -36 -85 -76 -100 -90 -14 -14 -61 -56
-104 -95 -43 -38 -93 -83 -111 -100 -18 -16 -65 -59 -104 -95 -120 -108 -125
-112 -216 -196 -49 -45 -111 -101 -139 -125 -27 -25 -70 -63 -95 -86 -100 -93
-124 -113 -132 -113 -4 0 -8 -6 -8 -13 0 -7 -11 -19 -24 -27 -14 -8 -51 -40
-83 -70 -32 -30 -103 -96 -157 -145 -55 -50 -107 -97 -116 -105 -9 -8 -51 -46
-94 -85 -44 -38 -93 -83 -111 -100 -17 -16 -65 -60 -106 -97 -41 -37 -88 -79
-105 -95 -17 -15 -61 -55 -98 -88 -37 -33 -87 -78 -110 -100 -24 -22 -73 -67
-110 -100 -37 -33 -84 -76 -105 -95 -32 -29 -111 -101 -215 -195 -13 -11 -64
-58 -115 -105 -51 -47 -97 -86 -102 -88 -15 -6 -10 -19 22 -53 32 -35 245
-262 309 -329 19 -21 62 -67 95 -102 112 -121 300 -321 340 -363 22 -22 90
-94 150 -159 61 -66 133 -143 160 -172 28 -29 88 -94 135 -144 47 -51 105
-113 130 -139 25 -26 97 -102 160 -170 63 -68 138 -147 165 -176 28 -29 89
-94 137 -146 47 -52 115 -124 150 -160 35 -37 106 -113 158 -169 52 -57 118
-127 145 -156 28 -29 98 -104 158 -167 59 -64 126 -136 150 -160 23 -25 85
-91 137 -147 52 -56 120 -129 152 -162 31 -32 98 -104 150 -159 51 -56 119
-129 152 -163 32 -33 70 -74 85 -91 55 -62 58 -62 96 -22 19 21 37 37 39 37 2
0 22 17 44 38 21 20 55 51 73 67 117 103 207 183 230 205 15 14 54 49 87 78
33 29 71 63 84 75 63 57 192 173 211 190 26 22 141 125 178 158 14 13 61 56
104 94 43 39 93 84 111 100 65 58 223 200 260 232 35 31 177 157 194 173 8 8
58 53 110 99 52 47 105 95 117 108 12 13 24 23 27 23 3 0 18 12 34 27 24 24
96 89 196 178 13 11 58 52 101 90 43 39 88 79 101 90 12 11 55 49 94 85 40 36
98 88 128 115 31 28 68 61 83 75 15 14 51 45 79 70 28 25 66 59 84 75 18 17
61 55 95 85 35 30 82 73 106 95 24 22 74 67 111 100 37 33 85 76 105 95 20 19
49 45 64 56 l27 22 -34 34 c-18 20 -82 88 -143 153 -60 66 -123 133 -140 151
-49 52 -240 257 -266 285 -43 47 -223 241 -264 285 -40 42 -69 73 -270 289
-60 65 -138 148 -171 184 -119 128 -140 150 -224 240 -46 51 -103 111 -125
135 -22 23 -84 90 -138 148 -54 58 -112 121 -130 140 -17 19 -75 81 -127 137
-52 57 -117 127 -145 156 -27 29 -76 81 -109 116 -50 54 -107 116 -296 319
-14 15 -79 85 -145 156 -66 70 -133 142 -148 159 -39 42 -108 116 -202 216
-44 47 -114 122 -155 167 -41 45 -79 82 -85 82 -5 0 -31 -20 -56 -43z"/>
</g>
</svg>
